<svg width="1024" height="1024" viewBox="0 0 1024 1024" xmlns="http://www.w3.org/2000/svg">
  <rect width="1024" height="1024" rx="229" ry="229" fill="#F4F0E9"/>
  <g fill="#0A0A0C">
    <path transform="translate(212.707 727.040) scale(0.2886 -0.2886)" d="M115 0V1490H464V714H480L800 1118H1197L798 630L1213 0H810L538 427L464 338V0Z"/>
    <path transform="translate(569.121 727.040) scale(0.2886 -0.2886)" d="M779 1118V859H555V0H208V859H20V1118H208V1178Q208 1306 256.0 1391.0Q304 1476 390.0 1518.0Q476 1560 588 1560Q662 1560 727.5 1548.5Q793 1537 823 1528L767 1273Q747 1278 720.0 1282.5Q693 1287 666 1287Q604 1287 579.5 1258.5Q555 1230 555 1181V1118Z"/>
  </g>
</svg>
