<svg width="1500" height="1000" viewBox="0 0 1500 1000" fill="none" xmlns="http://www.w3.org/2000/svg">
<rect width="1500" height="1000" fill="#F4F0E9"/>
<path d="M321.912 601.5V397.864H371.131V483.972H373.815L441.131 397.864H499.099L426.912 488.744L500.392 601.5H441.528L390.818 521.457L371.131 546.315V601.5H321.912ZM567.495 604.384C551.519 604.384 537.731 601.235 526.131 594.938C514.597 588.574 505.714 579.526 499.483 567.793C493.318 555.993 490.236 541.973 490.236 525.733C490.236 509.956 493.352 496.169 499.583 484.369C505.814 472.504 514.597 463.29 525.932 456.727C537.267 450.098 550.624 446.784 566.003 446.784C576.874 446.784 586.818 448.474 595.833 451.855C604.848 455.236 612.637 460.241 619.199 466.869C625.762 473.498 630.866 481.685 634.512 491.429C638.157 501.107 639.98 512.21 639.98 524.739V536.869H507.239V508.631H594.739C594.673 503.46 593.446 498.853 591.06 494.81C588.674 490.766 585.392 487.617 581.216 485.364C577.106 483.044 572.367 481.884 566.997 481.884C561.562 481.884 556.69 483.11 552.381 485.562C548.072 487.949 544.658 491.23 542.139 495.406C539.621 499.516 538.295 504.189 538.162 509.426V538.162C538.162 544.393 539.389 549.862 541.841 554.568C544.294 559.208 547.774 562.821 552.282 565.406C556.789 567.991 562.158 569.284 568.389 569.284C572.698 569.284 576.609 568.687 580.122 567.494C583.636 566.301 586.652 564.545 589.171 562.224C591.69 559.904 593.579 557.054 594.838 553.673L639.483 554.966C637.627 564.975 633.55 573.692 627.253 581.116C621.022 588.474 612.836 594.208 602.693 598.318C592.551 602.362 580.818 604.384 567.495 604.384ZM679.242 658.773C673.409 658.773 667.907 658.309 662.736 657.381C657.566 656.519 653.125 655.359 649.413 653.901L660.151 618.602C664.924 620.193 669.233 621.121 673.077 621.386C676.988 621.652 680.336 621.022 683.12 619.497C685.97 618.039 688.158 615.42 689.682 611.642L691.572 607.068L637.282 448.773H688.191L716.33 557.75H717.921L746.458 448.773H797.665L740.094 616.116C737.31 624.469 733.366 631.827 728.262 638.19C723.224 644.62 716.695 649.658 708.674 653.304C700.719 656.95 690.909 658.773 679.242 658.773Z" fill="#0F141C"/>
<path d="M905.716 448.773V484.568H807.477V448.773H905.716ZM827.96 601.5V441.017C827.96 429.218 830.181 419.44 834.622 411.685C839.063 403.863 845.228 398.029 853.116 394.185C861.005 390.274 870.119 388.318 880.46 388.318C887.222 388.318 893.585 388.848 899.551 389.909C905.583 390.903 910.058 391.798 912.974 392.594L905.219 428.19C903.429 427.594 901.241 427.097 898.656 426.699C896.137 426.301 893.751 426.102 891.497 426.102C885.796 426.102 881.885 427.362 879.764 429.881C877.643 432.4 876.582 435.847 876.582 440.222V601.5H827.96ZM917.907 601.5V448.773H966.529V601.5H917.907ZM942.268 430.974C935.44 430.974 929.574 428.721 924.669 424.213C919.763 419.639 917.311 414.137 917.311 407.707C917.311 401.344 919.763 395.908 924.669 391.401C929.574 386.827 935.44 384.54 942.268 384.54C949.162 384.54 955.028 386.827 959.867 391.401C964.773 395.908 967.225 401.344 967.225 407.707C967.225 414.137 964.773 419.639 959.867 424.213C955.028 428.721 949.162 430.974 942.268 430.974ZM1034.9 397.864V601.5H986.278V397.864H1034.9ZM1103.27 397.864V601.5H1054.65V397.864H1103.27ZM1150.36 604.384C1143.2 604.384 1137.07 601.865 1131.97 596.827C1126.93 591.789 1124.44 585.69 1124.51 578.531C1124.44 571.505 1126.93 565.506 1131.97 560.534C1137.07 555.496 1143.2 552.977 1150.36 552.977C1157.12 552.977 1163.09 555.496 1168.26 560.534C1173.5 565.506 1176.15 571.505 1176.21 578.531C1176.15 583.304 1174.89 587.646 1172.44 591.557C1170.05 595.468 1166.9 598.583 1162.99 600.903C1159.15 603.223 1154.94 604.384 1150.36 604.384Z" fill="#0F141C"/>
</svg>
